<svg xmlns="http://www.w3.org/2000/svg" width="26" height="24" viewBox="0 0 26 24">
  <g id="Group_68" data-name="Group 68" transform="translate(18380 12042)">
    <path id="calendar" d="M22.611,3.182H20.455V1a1,1,0,0,0-2,0V3.182H9.545V1a1,1,0,0,0-2,0V3.182H5.389A4.394,4.394,0,0,0,1,7.571v12.04A4.394,4.394,0,0,0,5.389,24H22.611A4.394,4.394,0,0,0,27,19.611V7.571a4.394,4.394,0,0,0-4.389-4.389Zm-17.222,2H7.545v.182a1,1,0,0,0,2,0V5.182h8.91v.182a1,1,0,0,0,2,0V5.182h2.156A2.391,2.391,0,0,1,25,7.571V9.727H3V7.571A2.391,2.391,0,0,1,5.389,5.182ZM22.611,22H5.389A2.392,2.392,0,0,1,3,19.611V11.727H25v7.884A2.392,2.392,0,0,1,22.611,22Z" transform="translate(-18381 -12042)" fill="#1fb3ff"/>
    <rect id="Rectangle_26" data-name="Rectangle 26" width="10" height="2" rx="1" transform="translate(-18372 -12026)" fill="#1fb3ff"/>
  </g>
</svg>
